<?xml version="1.0" encoding="utf-8"?><svg id="Layer_1" xmlns="http://www.w3.org/2000/svg" viewBox="0 0 100 100"><style>.st1{fill:#788b9c}.st3{fill:#7496c4}</style><path fill="#fff" d="M1.4 4.2h97.2v91.7H1.4z"/><path class="st1" d="M97.2 5.6v88.9H2.8V5.6h94.4m2.8-2.8H0v94.4h100V2.8z"/><path fill="#c2e8ff" d="M1.4 4.2h97.2v25H1.4z"/><path class="st3" d="M97.2 5.6v22.2H2.8V5.6h94.4m2.8-2.8H0v27.8h100V2.8z"/><path class="st1" d="M55.6 38.9h33.3v2.8H55.6z"/><path class="st3" d="M11.1 13.9h5.6v5.6h-5.6zM22.2 13.9h5.6v5.6h-5.6zM33.3 13.9h5.6v5.6h-5.6z"/><path class="st1" d="M55.6 50h33.3v2.8H55.6zM55.6 61.1h33.3v2.8H55.6zM55.6 72.2h33.3V75H55.6zM55.6 83.3h33.3v2.8H55.6z"/><g><path fill="#dcd5f2" d="M7.9 11.5h33.3v65.4H7.9z"/><path d="M39.8 13.6v61.3H9.3V13.6h30.5m2.8-4.1H6.5v69.4h36.1V9.5z" fill="#8b75a1"/></g></svg>